#!OML:ASF I:\salsa\salsa 7_09\Patient 1\Session 1\dancermale.ASF
:FULLY-SPECIFIED
:DEGREES
1163
root 5.28927 17.0745 1.88675 292.682 -95.1497 427.072
lowerback 0.519751 -0.728411 4.04768
upperback 0.627802 -0.986086 1.43709
thorax 0.310488 -0.489592 -0.791517
lowerneck -18.8043 9.96964 2.14884
upperneck 11.9727 -56.9613 -10.6247
head 225.319 -112.623 -368.891
rclavicle 1.05859e-014 -1.86361e-016
rhumerus -44.6371 21.0542 -111.095
rradius 85.0553
rwrist 8.80005
rhand -32.9932 -1.37868
rfingers 7.12502
rthumb -6.20764 -31.2677
lclavicle 1.05859e-014 -1.86361e-016
lhumerus -5.16544 -15.9783 69.4791
lradius 58.4679
lwrist -17.8496
lhand -26.7384 51.9118
lfingers 7.12502
lthumb -0.167399 1161.89
rfemur -9.96772 0.208434 29.6367
rtibia 25.8414
rfoot -19.6102 -13.0634
rtoes 5.15635
lfemur -31.9973 14.3572 -11.4601
ltibia 35.6417
lfoot 3.72972 -0.357403
ltoes 9.87839
1164
root 5.2232 17.0848 1.92932 294.348 -94.8618 425.607
lowerback 0.522799 -0.586728 3.74212
upperback 0.531706 -0.791025 1.32606
thorax 0.22082 -0.394023 -0.734788
lowerneck -18.8881 9.90333 1.98283
upperneck 11.7266 -56.7239 -10.3577
head 224.681 -113.288 -368.447
rclavicle 1.03756e-014 1.85118e-015
rhumerus -45.1759 20.7477 -111.466
rradius 84.6484
rwrist 8.84307
rhand -32.7816 -0.983574
rfingers 7.12502
rthumb -6.00334 -30.8785
lclavicle 1.03756e-014 1.85118e-015
lhumerus -4.59493 -15.2906 68.9131
lradius 58.8733
lwrist -18.5605
lhand -26.4388 51.0129
lfingers 7.12502
lthumb 0.12198 1160.99
rfemur -10.1397 0.295693 29.1034
rtibia 26.2389
rfoot -19.955 -13.3073
rtoes 4.82993
lfemur -31.3906 14.0465 -12.1501
ltibia 34.9353
lfoot 2.41961 0.899527
ltoes 6.05974
1165
root 5.14737 17.0949 1.97247 296.683 -94.6482 423.397
lowerback 0.521678 -0.407052 3.52555
upperback 0.413093 -0.545072 1.18408
thorax 0.110089 -0.272929 -0.759756
lowerneck -18.8131 9.82178 1.88552
upperneck 11.5713 -56.5193 -10.1525
head 224.007 -113.943 -367.963
rclavicle -1.99328e-015 -1.8313e-014
rhumerus -45.9241 20.1729 -111.827
rradius 84.2106
rwrist 9.1399
rhand -32.4015 -0.71553
rfingers 7.12502
rthumb -5.63637 -30.6206
lclavicle -1.99328e-015 -1.8313e-014
lhumerus -4.18843 -14.5833 68.6221
lradius 59.4664
lwrist -19.073
lhand -26.7559 51.4682
lfingers 7.12502
lthumb -0.184308 1161.45
rfemur -10.2105 0.712922 28.677
rtibia 26.6896
rfoot -20.3044 -13.7743
rtoes 4.92612
lfemur -30.3652 13.3662 -12.5466
ltibia 33.5361
lfoot 1.35248 1.82669
ltoes 2.8813
1166
root 5.0403 17.0924 2.01594 303.137 -94.9703 417.306
lowerback -0.130123 -0.0109239 3.66178
upperback 0.285964 -0.0431714 1.10627
thorax 0.364754 -0.0186144 -0.918276
lowerneck -18.7358 9.68561 1.78692
upperneck 11.4997 -56.4025 -10.0476
head 223.332 -114.514 -367.384
rclavicle 1.4196e-014 -1.61513e-014
rhumerus -46.86 19.2679 -112.137
rradius 83.6135
rwrist 9.50469
rhand -31.9693 -0.361024
rfingers 7.12502
rthumb -5.21906 -30.2768
lclavicle 1.4196e-014 -1.61513e-014
lhumerus -3.8703 -13.7672 68.6656
lradius 60.2069
lwrist -19.3768
lhand -27.1081 52.1761
lfingers 7.12502
lthumb -0.524496 1162.16
rfemur -10.5068 1.61109 28.6884
rtibia 27.3266
rfoot -20.7223 -14.0768
rtoes 4.96712
lfemur -29.0331 12.984 -12.4083
ltibia 31.3363
lfoot 0.599504 2.6536
ltoes 1.43914
1167
root 4.97451 17.0943 2.07032 306.222 -94.5285 414.373
lowerback -0.072618 0.163827 3.33884
upperback 0.110161 0.202703 0.885577
thorax 0.162245 0.100679 -0.963158
lowerneck -18.7557 9.53706 1.64168
upperneck 11.2921 -56.133 -9.83716
head 222.482 -115.252 -366.67
rclavicle 5.37029e-015 6.70898e-015
rhumerus -47.8343 18.1816 -112.268
rradius 82.9243
rwrist 9.8185
rhand -31.3507 0.0172873
rfingers 7.12502
rthumb -4.62178 -29.9123
lclavicle 5.37029e-015 6.70898e-015
lhumerus -3.45481 -12.713 69.0096
lradius 60.9336
lwrist -19.8525
lhand -27.1036 52.5384
lfingers 7.12502
lthumb -0.520146 1162.52
rfemur -11.0634 1.83735 27.904
rtibia 28.4833
rfoot -21.364 -14.5519
rtoes 4.07727
lfemur -27.8134 11.5727 -13.0432
ltibia 29.2762
lfoot -0.0114254 3.55703
ltoes 0.0594885
1168
root 4.887 17.1003 2.133 315.338 -93.5198 405.526
lowerback -0.535654 0.29216 2.44151
upperback -0.0207646 0.369547 0.462743
thorax 0.291435 0.18616 -0.891428
lowerneck -18.6673 9.42579 1.4955
upperneck 11.1888 -55.9742 -9.69358
head 221.876 -115.93 -366.215
rclavicle 2.23244e-015 -1.19271e-015
rhumerus -48.8496 17.2055 -112.303
rradius 82.3662
rwrist 10.0485
rhand -30.69 0.177904
rfingers 7.12502
rthumb -3.98374 -29.7646
lclavicle 2.23244e-015 -1.19271e-015
lhumerus -3.00406 -11.5071 69.5153
lradius 61.5889
lwrist -20.4933
lhand -27.047 52.6152
lfingers 7.12502
lthumb -0.465473 1162.59
rfemur -11.695 1.31615 26.1873
rtibia 29.7084
rfoot -22.0487 -14.4773
rtoes 3.19786
lfemur -26.794 10.2331 -14.7283
ltibia 27.5587
lfoot -0.966406 4.47089
ltoes -1.70778
1169
root 4.81359 17.1001 2.19087 326.17 -92.6938 395.092
lowerback -0.896528 0.384988 1.71556
upperback -0.308247 0.496438 0.0996959
thorax 0.20065 0.247199 -0.854021
lowerneck -18.461 9.29929 1.36088
upperneck 11.3446 -56.1246 -9.78425
head 221.626 -116.303 -365.99
rclavicle 1.82944e-015 2.98177e-015
rhumerus -50.0625 16.2531 -112.333
rradius 81.8002
rwrist 10.2229
rhand -30.1932 0.267437
rfingers 7.12502
rthumb -3.50401 -29.6835
lclavicle 1.82944e-015 2.98177e-015
lhumerus -2.72535 -10.3101 70.1771
lradius 62.2694
lwrist -21.2068
lhand -26.9263 52.3781
lfingers 7.12502
lthumb -0.348868 1162.36
rfemur -12.696 0.465132 24.7018
rtibia 31.2789
rfoot -22.6658 -14.1255
rtoes 4.00864
lfemur -26.3168 9.45551 -16.3069
ltibia 26.4209
lfoot -2.03337 5.24973
ltoes -2.68143
1170
root 4.74729 17.0881 2.25174 334.047 -92.0366 387.582
lowerback -1.15725 0.448607 1.43667
upperback -0.63468 0.581373 -0.196399
thorax 0.0153113 0.285894 -0.999334
lowerneck -18.334 9.13965 1.25021
upperneck 11.4034 -56.1632 -9.81633
head 221.268 -116.657 -365.658
rclavicle -5.78883e-016 1.88845e-015
rhumerus -51.3556 15.2166 -112.282
rradius 81.2034
rwrist 10.3191
rhand -29.7953 0.344874
rfingers 7.12502
rthumb -3.11973 -29.612
lclavicle -5.78883e-016 1.88845e-015
lhumerus -2.51511 -9.32628 70.9773
lradius 62.9807
lwrist -21.7577
lhand -27.1996 52.3042
lfingers 7.12502
lthumb -0.612909 1162.28
rfemur -13.6514 -0.573893 23.6461
rtibia 32.8422
rfoot -23.4165 -14.0152
rtoes 4.10045
lfemur -25.7573 8.95735 -17.4687
ltibia 25.0199
lfoot -2.72195 5.72666
ltoes -2.39658
1171
root 4.68856 17.0728 2.31734 342.655 -91.4304 379.262
lowerback -1.37014 0.474971 1.39934
upperback -0.899515 0.613065 -0.477311
thorax -0.132976 0.297588 -1.26519
lowerneck -18.2718 9.00702 1.16281
upperneck 11.3095 -56.0024 -9.72611
head 220.811 -117.063 -365.291
rclavicle 5.01388e-015 -6.26172e-015
rhumerus -52.5895 14.2424 -112.125
rradius 80.7401
rwrist 10.3032
rhand -29.2995 0.224071
rfingers 7.12502
rthumb -2.64095 -29.7393
lclavicle 5.01388e-015 -6.26172e-015
lhumerus -2.27205 -8.46579 71.8461
lradius 63.6438
lwrist -22.2257
lhand -27.619 52.4798
lfingers 7.12502
lthumb -1.01789 1162.46
rfemur -14.2986 -1.36637 22.7853
rtibia 34.008
rfoot -24.0441 -14.3713
rtoes 3.40833
lfemur -25.0179 8.69283 -18.45
ltibia 23.3056
lfoot -2.95592 5.7672
ltoes -1.55094
1172
root 4.63397 17.0571 2.38362 381.898 -90.6251 340.202
lowerback -1.55605 0.368439 1.2087
upperback -1.08245 0.468278 -0.839967
thorax -0.219326 0.221891 -1.5312
lowerneck -18.2321 8.93091 1.04583
upperneck 11.1801 -55.8466 -9.56854
head 220.44 -117.592 -365.075
rclavicle -7.29912e-017 0
rhumerus -53.7532 13.2834 -111.873
rradius 80.3432
rwrist 10.3546
rhand -28.541 -0.359516
rfingers 7.12502
rthumb -1.9084 -30.3307
lclavicle -7.29912e-017 0
lhumerus -2.00321 -7.52022 72.7726
lradius 64.2403
lwrist -22.986
lhand -27.5679 52.5346
lfingers 7.12502
lthumb -0.968536 1162.51
rfemur -14.5804 -1.92992 21.7167
rtibia 34.7613
rfoot -24.4313 -15.1732
rtoes 3.55613
lfemur -24.3194 8.71489 -19.7858
ltibia 21.7122
lfoot -2.88009 4.97849
ltoes -1.87555
1173
root 4.60936 17.041 2.4424 454.94 -91.0477 267.433
lowerback -1.57673 0.306153 0.789396
upperback -1.31515 0.383146 -1.25246
thorax -0.448965 0.174939 -1.72065
lowerneck -18.185 8.82028 0.967921
upperneck 11.1643 -55.8882 -9.49811
head 220.207 -117.994 -364.931
rclavicle -1.57164e-015 7.55382e-015
rhumerus -54.8507 12.3372 -111.514
rradius 79.9708
rwrist 10.5512
rhand -27.6435 -1.02306
rfingers 7.12502
rthumb -1.04161 -31.0003
lclavicle -1.57164e-015 7.55382e-015
lhumerus -1.65452 -6.66794 73.7663
lradius 64.7241
lwrist -23.5916
lhand -27.4539 52.5542
lfingers 7.12502
lthumb -0.858486 1162.53
rfemur -15.3845 -2.24335 20.5486
rtibia 36.0941
rfoot -24.8394 -16.0614
rtoes 3.70514
lfemur -24.1727 9.22326 -21.3359
ltibia 20.7537
lfoot -2.74213 3.82314
ltoes -3.24158
